<svg width="284" height="283" viewBox="0 0 284 283" fill="none" xmlns="http://www.w3.org/2000/svg">
<path d="M185.747 149.872C197.308 140.777 205.746 128.304 209.887 114.19C214.029 100.075 213.669 85.0211 208.856 71.1211C204.044 57.2211 195.018 45.1667 183.036 36.635C171.053 28.1033 156.71 23.5186 142 23.5186C127.29 23.5186 112.947 28.1033 100.964 36.635C88.9817 45.1667 79.9563 57.2211 75.1438 71.1211C70.3312 85.0211 69.9708 100.075 74.1126 114.19C78.2544 128.304 86.6925 140.777 98.2529 149.872C78.4438 157.808 61.1597 170.972 48.2432 187.958C35.3267 204.945 27.2619 225.118 24.9087 246.328C24.7384 247.876 24.8747 249.443 25.31 250.939C25.7452 252.435 26.4708 253.83 27.4453 255.046C29.4134 257.5 32.276 259.073 35.4033 259.417C38.5307 259.761 41.6666 258.848 44.1212 256.88C46.5758 254.912 48.1481 252.049 48.4921 248.922C51.0814 225.872 62.0724 204.583 79.3652 189.124C96.6581 173.665 119.04 165.119 142.236 165.119C165.431 165.119 187.814 173.665 205.106 189.124C222.399 204.583 233.39 225.872 235.98 248.922C236.3 251.82 237.683 254.496 239.86 256.434C242.038 258.372 244.856 259.434 247.771 259.417H249.068C252.159 259.061 254.985 257.498 256.928 255.069C258.872 252.639 259.777 249.54 259.445 246.446C257.081 225.176 248.973 204.951 235.99 187.938C223.007 170.925 205.639 157.766 185.747 149.872ZM142 141.5C132.671 141.5 123.552 138.734 115.796 133.551C108.039 128.368 101.994 121.002 98.4237 112.383C94.8537 103.765 93.9197 94.2811 95.7396 85.1316C97.5596 75.9822 102.052 67.5779 108.648 60.9815C115.245 54.3851 123.649 49.8929 132.798 48.073C141.948 46.2531 151.431 47.1871 160.05 50.757C168.668 54.327 176.035 60.3724 181.218 68.129C186.4 75.8855 189.167 85.0047 189.167 94.3334C189.167 106.843 184.197 118.84 175.352 127.685C166.506 136.531 154.509 141.5 142 141.5Z" fill="#F9F9F9"/>
</svg>
