<svg width="40" height="40" viewBox="0 0 40 40" fill="none" xmlns="http://www.w3.org/2000/svg">
<path d="M31.6666 3.33334H8.33331C7.00723 3.33334 5.73546 3.86013 4.79778 4.79781C3.8601 5.73549 3.33331 7.00726 3.33331 8.33334V31.6667C3.33331 32.9928 3.8601 34.2645 4.79778 35.2022C5.73546 36.1399 7.00723 36.6667 8.33331 36.6667H31.6666C32.9927 36.6667 34.2645 36.1399 35.2022 35.2022C36.1399 34.2645 36.6666 32.9928 36.6666 31.6667V8.33334C36.6666 7.00726 36.1399 5.73549 35.2022 4.79781C34.2645 3.86013 32.9927 3.33334 31.6666 3.33334ZM33.3333 31.6667C33.3333 32.1087 33.1577 32.5326 32.8452 32.8452C32.5326 33.1578 32.1087 33.3333 31.6666 33.3333H8.33331C7.89129 33.3333 7.46736 33.1578 7.1548 32.8452C6.84224 32.5326 6.66665 32.1087 6.66665 31.6667V8.33334C6.66665 7.89132 6.84224 7.46739 7.1548 7.15483C7.46736 6.84227 7.89129 6.66668 8.33331 6.66668H31.6666C32.1087 6.66668 32.5326 6.84227 32.8452 7.15483C33.1577 7.46739 33.3333 7.89132 33.3333 8.33334V31.6667ZM20 13.3333C19.1159 13.3333 18.2681 13.6845 17.643 14.3097C17.0178 14.9348 16.6666 15.7826 16.6666 16.6667C16.6702 17.2484 16.8258 17.8191 17.1182 18.322C17.4106 18.8249 17.8295 19.2425 18.3333 19.5333V25C18.3333 25.442 18.5089 25.866 18.8215 26.1785C19.134 26.4911 19.558 26.6667 20 26.6667C20.442 26.6667 20.8659 26.4911 21.1785 26.1785C21.4911 25.866 21.6666 25.442 21.6666 25V19.5333C22.1704 19.2425 22.5893 18.8249 22.8817 18.322C23.1741 17.8191 23.3298 17.2484 23.3333 16.6667C23.3333 15.7826 22.9821 14.9348 22.357 14.3097C21.7319 13.6845 20.884 13.3333 20 13.3333V13.3333Z" fill="#F9F9F9"/>
</svg>
