<svg width="284" height="283" viewBox="0 0 284 283" fill="none" xmlns="http://www.w3.org/2000/svg">
<path d="M224.542 23.5834H59.4583C50.0763 23.5834 41.0785 27.3104 34.4444 33.9445C27.8103 40.5786 24.0833 49.5763 24.0833 58.9584V176.875C24.0833 186.257 27.8103 195.255 34.4444 201.889C41.0785 208.523 50.0763 212.25 59.4583 212.25H90.5883L83.7492 224.042C81.6793 227.627 80.5896 231.694 80.5896 235.833C80.5896 239.973 81.6793 244.04 83.7492 247.625C85.8369 251.241 88.8473 254.239 92.4729 256.31C96.0984 258.382 100.209 259.454 104.385 259.417H180.559C184.694 259.412 188.756 258.321 192.337 256.251C195.917 254.181 198.891 251.207 200.958 247.625C203.028 244.04 204.118 239.973 204.118 235.833C204.118 231.694 203.028 227.627 200.958 224.042L194.001 212.25H224.542C233.924 212.25 242.921 208.523 249.556 201.889C256.19 195.255 259.917 186.257 259.917 176.875V58.9584C259.917 49.5763 256.19 40.5786 249.556 33.9445C242.921 27.3104 233.924 23.5834 224.542 23.5834ZM103.913 235.833L118.417 212.25H165.583L179.733 235.833H103.913ZM236.333 176.875C236.333 180.002 235.091 183.002 232.88 185.213C230.668 187.424 227.669 188.667 224.542 188.667H59.4583C56.331 188.667 53.3317 187.424 51.1204 185.213C48.909 183.002 47.6667 180.002 47.6667 176.875V165.083H236.333V176.875ZM236.333 141.5H47.6667V58.9584C47.6667 55.831 48.909 52.8318 51.1204 50.6204C53.3317 48.409 56.331 47.1667 59.4583 47.1667H224.542C227.669 47.1667 230.668 48.409 232.88 50.6204C235.091 52.8318 236.333 55.831 236.333 58.9584V141.5Z" fill="#F9F9F9"/>
</svg>
