<svg width="284" height="283" viewBox="0 0 284 283" fill="none" xmlns="http://www.w3.org/2000/svg">
<path d="M231.97 43.0396C230.601 41.9314 229 41.1443 227.286 40.7362C225.571 40.3281 223.788 40.3093 222.065 40.6812C209.465 43.3219 196.458 43.3556 183.844 40.7801C171.231 38.2046 159.278 33.0746 148.721 25.7058C146.747 24.3365 144.402 23.6027 142 23.6027C139.598 23.6027 137.253 24.3365 135.279 25.7058C124.722 33.0746 112.769 38.2046 100.156 40.7801C87.5421 43.3556 74.5347 43.3219 61.9346 40.6812C60.2123 40.3093 58.4285 40.3281 56.7144 40.7362C55.0003 41.1443 53.3995 41.9314 52.0296 43.0396C50.6615 44.1494 49.5595 45.5516 48.8045 47.1433C48.0495 48.7349 47.6607 50.4755 47.6667 52.2371V140.085C47.6562 156.991 51.6849 173.655 59.4175 188.69C67.15 203.724 78.3625 216.693 92.1212 226.518L135.161 257.176C137.158 258.598 139.548 259.362 142 259.362C144.452 259.362 146.842 258.598 148.839 257.176L191.879 226.518C205.638 216.693 216.85 203.724 224.583 188.69C232.315 173.655 236.344 156.991 236.333 140.085V52.2371C236.339 50.4755 235.951 48.7349 235.196 47.1433C234.441 45.5516 233.338 44.1494 231.97 43.0396ZM212.75 140.085C212.759 153.23 209.629 166.187 203.619 177.878C197.61 189.568 188.895 199.655 178.2 207.298L142 233.121L105.8 207.298C95.105 199.655 86.3903 189.568 80.3809 177.878C74.3714 166.187 71.241 153.23 71.25 140.085V65.7975C95.9704 67.9133 120.728 62.1777 142 49.4071C163.272 62.1777 188.03 67.9133 212.75 65.7975V140.085ZM160.159 113.082L128.44 144.92L117.945 134.307C115.725 132.087 112.713 130.839 109.573 130.839C106.433 130.839 103.421 132.087 101.201 134.307C98.9804 136.527 97.733 139.539 97.733 142.679C97.733 145.819 98.9804 148.831 101.201 151.051L120.068 169.918C121.164 171.023 122.468 171.9 123.905 172.499C125.342 173.098 126.883 173.406 128.44 173.406C129.996 173.406 131.537 173.098 132.974 172.499C134.411 171.9 135.715 171.023 136.812 169.918L177.375 129.708C179.595 127.488 180.843 124.476 180.843 121.336C180.843 118.196 179.595 115.185 177.375 112.964C175.155 110.744 172.143 109.496 169.003 109.496C165.863 109.496 162.851 110.744 160.631 112.964L160.159 113.082Z" fill="#F9F9F9"/>
</svg>
